<svg id="Layer_4" data-name="Layer 4" xmlns="http://www.w3.org/2000/svg" xmlns:xlink="http://www.w3.org/1999/xlink" viewBox="0 0 5109.96 1303.38"><defs><style>.cls-1,.cls-10,.cls-11,.cls-12,.cls-13,.cls-14,.cls-15,.cls-16,.cls-17,.cls-18,.cls-19,.cls-2,.cls-20,.cls-21,.cls-22,.cls-23,.cls-24,.cls-25,.cls-26,.cls-27,.cls-28,.cls-29,.cls-3,.cls-30,.cls-31,.cls-32,.cls-33,.cls-34,.cls-35,.cls-36,.cls-37,.cls-38,.cls-39,.cls-4,.cls-40,.cls-41,.cls-42,.cls-5,.cls-6,.cls-7,.cls-8,.cls-9{fill:none;stroke-miterlimit:10;stroke-width:1.82px;}.cls-1{stroke:url(#linear-gradient);}.cls-2{stroke:url(#linear-gradient-2);}.cls-3{stroke:url(#linear-gradient-3);}.cls-4{stroke:url(#linear-gradient-4);}.cls-5{stroke:url(#linear-gradient-5);}.cls-6{stroke:url(#linear-gradient-6);}.cls-7{stroke:url(#linear-gradient-7);}.cls-8{stroke:url(#linear-gradient-8);}.cls-9{stroke:url(#linear-gradient-9);}.cls-10{stroke:url(#linear-gradient-10);}.cls-11{stroke:url(#linear-gradient-11);}.cls-12{stroke:url(#linear-gradient-12);}.cls-13{stroke:url(#linear-gradient-13);}.cls-14{stroke:url(#linear-gradient-14);}.cls-15{stroke:url(#linear-gradient-15);}.cls-16{stroke:url(#linear-gradient-16);}.cls-17{stroke:url(#linear-gradient-17);}.cls-18{stroke:url(#linear-gradient-18);}.cls-19{stroke:url(#linear-gradient-19);}.cls-20{stroke:url(#linear-gradient-20);}.cls-21{stroke:url(#linear-gradient-21);}.cls-22{stroke:url(#linear-gradient-22);}.cls-23{stroke:url(#linear-gradient-23);}.cls-24{stroke:url(#linear-gradient-24);}.cls-25{stroke:url(#linear-gradient-25);}.cls-26{stroke:url(#linear-gradient-26);}.cls-27{stroke:url(#linear-gradient-27);}.cls-28{stroke:url(#linear-gradient-28);}.cls-29{stroke:url(#linear-gradient-29);}.cls-30{stroke:url(#linear-gradient-30);}.cls-31{stroke:url(#linear-gradient-31);}.cls-32{stroke:url(#linear-gradient-32);}.cls-33{stroke:url(#linear-gradient-33);}.cls-34{stroke:url(#linear-gradient-34);}.cls-35{stroke:url(#linear-gradient-35);}.cls-36{stroke:url(#linear-gradient-36);}.cls-37{stroke:url(#linear-gradient-37);}.cls-38{stroke:url(#linear-gradient-38);}.cls-39{stroke:url(#linear-gradient-39);}.cls-40{stroke:url(#linear-gradient-40);}.cls-41{stroke:url(#linear-gradient-41);}.cls-42{stroke:url(#linear-gradient-42);}</style><linearGradient id="linear-gradient" x1="7.94" y1="789.31" x2="5116.28" y2="789.31" gradientUnits="userSpaceOnUse"><stop offset="0" stop-color="#fff"/><stop offset="0.06" stop-color="#d0c3f3"/><stop offset="0.25" stop-color="#ff87bb"/><stop offset="0.9" stop-color="#fcb17b"/><stop offset="1" stop-color="#fff"/></linearGradient><linearGradient id="linear-gradient-2" x1="8.22" y1="783.41" x2="5116.32" y2="783.41" xlink:href="#linear-gradient"/><linearGradient id="linear-gradient-3" x1="8.51" y1="777.46" x2="5116.36" y2="777.46" xlink:href="#linear-gradient"/><linearGradient id="linear-gradient-4" x1="8.79" y1="771.51" x2="5116.4" y2="771.51" xlink:href="#linear-gradient"/><linearGradient id="linear-gradient-5" x1="9.08" y1="765.59" x2="5116.44" y2="765.59" xlink:href="#linear-gradient"/><linearGradient id="linear-gradient-6" x1="9.36" y1="759.73" x2="5116.48" y2="759.73" xlink:href="#linear-gradient"/><linearGradient id="linear-gradient-7" x1="9.65" y1="753.94" x2="5116.52" y2="753.94" xlink:href="#linear-gradient"/><linearGradient id="linear-gradient-8" x1="9.93" y1="748.26" x2="5116.55" y2="748.26" xlink:href="#linear-gradient"/><linearGradient id="linear-gradient-9" x1="10.22" y1="742.67" x2="5116.59" y2="742.67" xlink:href="#linear-gradient"/><linearGradient id="linear-gradient-10" x1="10.51" y1="737.17" x2="5116.63" y2="737.17" xlink:href="#linear-gradient"/><linearGradient id="linear-gradient-11" x1="10.79" y1="731.75" x2="5116.67" y2="731.75" xlink:href="#linear-gradient"/><linearGradient id="linear-gradient-12" x1="11.08" y1="726.41" x2="5116.71" y2="726.41" xlink:href="#linear-gradient"/><linearGradient id="linear-gradient-13" x1="11.36" y1="721.12" x2="5116.75" y2="721.12" xlink:href="#linear-gradient"/><linearGradient id="linear-gradient-14" x1="11.65" y1="715.86" x2="5116.79" y2="715.86" xlink:href="#linear-gradient"/><linearGradient id="linear-gradient-15" x1="11.93" y1="710.62" x2="5116.83" y2="710.62" xlink:href="#linear-gradient"/><linearGradient id="linear-gradient-16" x1="12.22" y1="705.38" x2="5116.87" y2="705.38" xlink:href="#linear-gradient"/><linearGradient id="linear-gradient-17" x1="12.51" y1="700.11" x2="5116.91" y2="700.11" xlink:href="#linear-gradient"/><linearGradient id="linear-gradient-18" x1="12.79" y1="694.8" x2="5116.95" y2="694.8" xlink:href="#linear-gradient"/><linearGradient id="linear-gradient-19" x1="13.08" y1="689.44" x2="5116.99" y2="689.44" xlink:href="#linear-gradient"/><linearGradient id="linear-gradient-20" x1="13.36" y1="684.01" x2="5117.03" y2="684.01" xlink:href="#linear-gradient"/><linearGradient id="linear-gradient-21" x1="13.65" y1="678.53" x2="5117.07" y2="678.53" xlink:href="#linear-gradient"/><linearGradient id="linear-gradient-22" x1="13.94" y1="673" x2="5117.11" y2="673" xlink:href="#linear-gradient"/><linearGradient id="linear-gradient-23" x1="14.22" y1="669.61" x2="5117.15" y2="669.61" xlink:href="#linear-gradient"/><linearGradient id="linear-gradient-24" x1="14.51" y1="675.06" x2="5117.19" y2="675.06" xlink:href="#linear-gradient"/><linearGradient id="linear-gradient-25" x1="14.8" y1="680.09" x2="5117.23" y2="680.09" xlink:href="#linear-gradient"/><linearGradient id="linear-gradient-26" x1="15.08" y1="684.63" x2="5117.27" y2="684.63" xlink:href="#linear-gradient"/><linearGradient id="linear-gradient-27" x1="15.37" y1="688.64" x2="5117.31" y2="688.64" xlink:href="#linear-gradient"/><linearGradient id="linear-gradient-28" x1="15.66" y1="692.05" x2="5117.35" y2="692.05" xlink:href="#linear-gradient"/><linearGradient id="linear-gradient-29" x1="15.94" y1="694.8" x2="5117.39" y2="694.8" xlink:href="#linear-gradient"/><linearGradient id="linear-gradient-30" x1="16.23" y1="696.82" x2="5117.43" y2="696.82" xlink:href="#linear-gradient"/><linearGradient id="linear-gradient-31" x1="16.51" y1="698.01" x2="5117.47" y2="698.01" xlink:href="#linear-gradient"/><linearGradient id="linear-gradient-32" x1="16.79" y1="698.02" x2="5117.5" y2="698.02" xlink:href="#linear-gradient"/><linearGradient id="linear-gradient-33" x1="17.07" y1="697.74" x2="5117.54" y2="697.74" xlink:href="#linear-gradient"/><linearGradient id="linear-gradient-34" x1="17.35" y1="697.46" x2="5117.58" y2="697.46" xlink:href="#linear-gradient"/><linearGradient id="linear-gradient-35" x1="17.63" y1="697.18" x2="5117.62" y2="697.18" xlink:href="#linear-gradient"/><linearGradient id="linear-gradient-36" x1="17.91" y1="696.9" x2="5117.66" y2="696.9" xlink:href="#linear-gradient"/><linearGradient id="linear-gradient-37" x1="18.19" y1="696.62" x2="5117.7" y2="696.62" xlink:href="#linear-gradient"/><linearGradient id="linear-gradient-38" x1="18.47" y1="696.34" x2="5117.74" y2="696.34" xlink:href="#linear-gradient"/><linearGradient id="linear-gradient-39" x1="18.75" y1="696.06" x2="5117.78" y2="696.06" xlink:href="#linear-gradient"/><linearGradient id="linear-gradient-40" x1="19.03" y1="695.79" x2="5117.82" y2="695.79" xlink:href="#linear-gradient"/><linearGradient id="linear-gradient-41" x1="19.31" y1="695.51" x2="5117.86" y2="695.51" xlink:href="#linear-gradient"/><linearGradient id="linear-gradient-42" x1="19.58" y1="695.23" x2="5117.9" y2="695.23" xlink:href="#linear-gradient"/></defs><title>People</title><path class="cls-1" d="M8,575.19c1147.19-78,835.16-689.09,1489.22-222C1749,532.91,3642,921.6,3753.45,1292.25c129,429,1056.11-573.06,1362.5-454" transform="translate(-7.94 -97.25)"/><path class="cls-2" d="M8.28,563.56C1139.8,488.17,856-111.39,1490,364.86c250.15,187.92,2124.57,548.57,2265.43,914,160.85,417.27,1052.15-549,1360.56-429.57" transform="translate(-7.94 -97.25)"/><path class="cls-3" d="M8.57,551.92c1115.84-72.75,860.19-660,1474.19-175.37,248.69,196.3,2103.67,527.92,2274.64,888.91C3949.16,1670.34,4805.6,740.56,5116,860.36" transform="translate(-7.94 -97.25)"/><path class="cls-4" d="M8.85,540.29C1109,470.17,881.27-104,1475.52,388.25c247.35,204.9,2082,506.69,2283.85,863.82C3981,1644.16,4803.63,751.25,5116.07,871.44" transform="translate(-7.94 -97.25)"/><path class="cls-5" d="M9.14,528.65C1093.62,461.17,893.55-99.16,1468.29,400c246.09,213.71,2059.45,485.11,2293.06,838.73,250.46,379.12,1040.3-476.75,1354.76-356.17" transform="translate(-7.94 -97.25)"/><path class="cls-6" d="M9.42,517C1078.23,452.17,905.57-93.57,1461.06,411.65,1706,634.39,3497.16,875,3763.33,1225.29c278.26,366.18,1036.35-452.68,1352.82-331.7" transform="translate(-7.94 -97.25)"/><path class="cls-7" d="M9.7,505.38c1053.14-62.21,907.59-592.67,1444.12-82,243.74,232,2012,441.67,2311.48,788.55,305.15,353.41,1032.4-428.6,1350.89-307.23" transform="translate(-7.94 -97.25)"/><path class="cls-8" d="M10,493.75c1037.46-59.58,918.71-574.06,1436.61-58.7,242.61,241.42,1987.15,420.16,2320.69,763.46,331.24,340.94,1028.44-404.53,1349-282.76" transform="translate(-7.94 -97.25)"/><path class="cls-9" d="M10.27,482.11c1021.79-56.95,929.5-554.82,1429.09-35.36,241.48,251.08,1961.73,398.94,2329.9,738.37,356.68,328.84,1024.49-380.45,1347-258.3" transform="translate(-7.94 -97.25)"/><path class="cls-10" d="M10.55,470.48c1006.11-54.31,939.95-535,1421.57-12,240.33,260.95,1935.8,378.1,2339.1,713.28,381.61,317.14,1020.54-356.38,1345.08-233.83" transform="translate(-7.94 -97.25)"/><path class="cls-11" d="M10.84,458.84c990.44-51.68,950-514.57,1414.06,11.31,239.13,271,1909.46,357.69,2348.31,688.19C4179.34,1464.19,4789.8,826,5116.35,949" transform="translate(-7.94 -97.25)"/><path class="cls-12" d="M11.12,447.21c974.76-49,959.77-493.64,1406.54,34.64,237.88,281.28,1882.81,337.72,2357.52,663.1,430.37,295,1012.64-308.23,1341.21-184.89" transform="translate(-7.94 -97.25)"/><path class="cls-13" d="M11.41,435.57c959.09-46.41,969.13-472.22,1399,58,236.54,291.73,1855.92,318.2,2366.73,638C4231.56,1416,4785.85,847.4,5116.43,971.13" transform="translate(-7.94 -97.25)"/><path class="cls-14" d="M11.69,423.94C955.1,380.16,989.82-26.42,1403.2,505.25c235.1,302.37,1828.86,299.11,2375.94,612.91,478.31,274.36,1004.73-260.07,1337.34-136" transform="translate(-7.94 -97.25)"/><path class="cls-15" d="M12,412.3C939.71,371.16,998.73-15.78,1396,516.95c233.53,313.19,1801.68,280.43,2385.15,587.82,502.14,264.55,1000.78-236,1335.4-111.49" transform="translate(-7.94 -97.25)"/><path class="cls-16" d="M12.26,400.67c912.06-38.5,995-405.44,1376.47,128,231.82,324.18,1774.44,262.13,2394.36,562.73,525.94,255,996.83-211.92,1333.47-87" transform="translate(-7.94 -97.25)"/><path class="cls-17" d="M12.54,389c896.39-35.87,1002.93-382.47,1369,151.31,230,335.34,1747.17,244.18,2403.57,537.64,549.75,245.78,992.88-187.85,1331.53-62.55" transform="translate(-7.94 -97.25)"/><path class="cls-18" d="M12.83,377.4C893.54,344.16,1023.3,18.21,1374.26,552,1602.17,898.71,3094.16,778.6,3787,1064.59c573.59,236.75,988.93-163.77,1329.6-38.08" transform="translate(-7.94 -97.25)"/><path class="cls-19" d="M13.11,365.76c865-30.6,1017.68-335.65,1353.92,198C1592.69,921.89,3059.68,773,3789,1051.2c597.48,227.93,985-139.7,1327.66-13.61" transform="translate(-7.94 -97.25)"/><path class="cls-20" d="M13.39,354.13c849.36-28,1024.54-311.88,1346.4,221.32C1583,945.21,3025.23,767.59,3791,1037.81c621.42,219.29,981-115.62,1325.73,10.85" transform="translate(-7.94 -97.25)"/><path class="cls-21" d="M13.68,342.49C847.36,317.16,1044.75,54.58,1352.56,587.14c220.51,381.53,1638.26,175.3,2440.4,437.28,645.43,210.8,977.07-91.55,1323.79,35.32" transform="translate(-7.94 -97.25)"/><path class="cls-22" d="M14,330.86c818-22.7,1037.28-263.78,1331.37,268C1562.91,992.26,2956.49,757.5,3794.94,1011c669.51,202.44,973.12-67.47,1321.86,59.79" transform="translate(-7.94 -97.25)"/><path class="cls-23" d="M14.25,319.22C816.58,299.16,1057.42,79.72,1338.1,610.54c214.38,405.43,1584.11,142.2,2458.82,387.1,693.67,194.21,969.17-43.39,1319.92,84.26" transform="translate(-7.94 -97.25)"/><path class="cls-24" d="M14.53,307.59C801.19,290.16,1063.3,92.47,1330.87,622.24c210.9,417.56,1557.13,125.9,2468,362,717.89,186.08,965.22-19.32,1318,108.73" transform="translate(-7.94 -97.25)"/><path class="cls-25" d="M14.81,296c771-14.79,1054.06-190.64,1308.82,338,207.12,429.79,1530.21,109.75,2477.24,336.91,742.2,178,961.27,4.76,1316,133.2" transform="translate(-7.94 -97.25)"/><path class="cls-26" d="M15.1,284.32c755.31-12.16,1059.08-166.11,1301.3,361.32,203,442.11,1503.37,93.72,2486.44,311.82,766.57,170.07,957.32,28.83,1314.11,157.66" transform="translate(-7.94 -97.25)"/><path class="cls-27" d="M15.38,272.68C755,263.16,1079.19,131.14,1309.17,657.34c198.65,454.52,1476.59,77.81,2495.65,286.73,791,162.17,953.36,52.91,1312.18,182.13" transform="translate(-7.94 -97.25)"/><path class="cls-28" d="M15.66,261c724-6.89,1068.29-117,1286.27,408,193.92,467,1449.87,62,2504.86,261.64,815.53,154.34,949.41,77,1310.24,206.6" transform="translate(-7.94 -97.25)"/><path class="cls-29" d="M15.95,249.41C724.23,245.16,1088.45,157,1294.7,680.73,1483.55,1160.28,2717.92,727,3808.77,917.29c840.1,146.55,945.46,101.06,1308.31,231.07" transform="translate(-7.94 -97.25)"/><path class="cls-30" d="M16.23,237.78c692.61-1.62,1076.48-67.86,1271.24,454.66C1470.9,1184.57,2684.1,723,3810.75,903.89c864.74,138.81,941.51,125.13,1306.37,255.54" transform="translate(-7.94 -97.25)"/><path class="cls-31" d="M16.52,226.14c676.93,1,1080.22-43.37,1263.72,478,177.65,504.76,1370.1,15,2532.49,186.37,889.43,131.11,937.56,149.21,1304.44,280" transform="translate(-7.94 -97.25)"/><path class="cls-32" d="M16.8,214.51c661.26,3.65,1083.74-19,1256.2,501.33,171.51,517.42,1343.62-.51,2541.7,161.28,914.18,123.45,933.61,173.29,1302.5,304.47" transform="translate(-7.94 -97.25)"/><path class="cls-33" d="M17.08,202.87c645.58,6.28,1087.05,5.37,1248.69,524.66,165,530.08,1317.2-16,2550.91,136.19,939,115.82,929.65,197.36,1300.57,328.94" transform="translate(-7.94 -97.25)"/><path class="cls-34" d="M17.37,191.23c629.91,8.92,1090.16,29.59,1241.17,548,158.1,542.75,1290.82-31.41,2560.12,111.1,963.84,108.21,925.7,221.44,1298.63,353.41" transform="translate(-7.94 -97.25)"/><path class="cls-35" d="M17.65,179.6c614.23,11.55,1093.08,53.7,1233.65,571.33,150.83,555.4,1264.5-46.79,2569.32,86,988.74,100.63,921.75,245.51,1296.69,377.88" transform="translate(-7.94 -97.25)"/><path class="cls-36" d="M17.94,168c598.56,14.19,1095.81,77.66,1226.13,594.66,143.18,568,1238.22-62.14,2578.53,60.92,1013.68,93.07,917.8,269.59,1294.76,402.35" transform="translate(-7.94 -97.25)"/><path class="cls-37" d="M18.22,156.33c582.88,16.82,1098.38,101.48,1218.62,618,135.16,580.6,1212-77.45,2587.74,35.83C4863.24,895.67,4738.43,1103.82,5117.4,1237" transform="translate(-7.94 -97.25)"/><path class="cls-38" d="M18.5,144.69C585.71,164.15,1119.29,269.83,1229.6,786c126.76,593.13,1185.79-92.74,2597,10.73,1063.68,78,909.9,317.74,1290.89,451.28" transform="translate(-7.94 -97.25)"/><path class="cls-39" d="M18.79,133.06c551.53,22.09,1103,148.62,1203.58,664.67,118,605.59,1159.63-108,2606.16-14.36,1088.74,70.48,905.94,341.81,1289,475.75" transform="translate(-7.94 -97.25)"/><path class="cls-40" d="M19.07,121.42c535.86,24.72,1105.16,171.91,1196.07,688C1324,1427.4,2348.65,686.19,3830.51,770c1113.83,63,902,365.89,1287,500.22" transform="translate(-7.94 -97.25)"/><path class="cls-41" d="M19.35,109.79c520.18,27.36,1107.15,195,1188.55,711.34,99.37,630.26,1107.31-136,2624.58-64.54,1138.87,57.3,898,390,1285.08,524.69" transform="translate(-7.94 -97.25)"/><path class="cls-42" d="M19.64,98.15c504.51,30,1109,217.92,1181,734.67C1290.2,1475.27,2282,679.18,3834.46,743.2c1164.12,48,894.09,414,1283.15,549.15" transform="translate(-7.94 -97.25)"/></svg>